<svg version="1.1" id="Layer_1" xmlns="http://www.w3.org/2000/svg" xmlns:xlink="http://www.w3.org/1999/xlink" x="0px" y="0px"
	 width="100%" viewBox="0 0 500 500" enable-background="new 0 0 500 500" xml:space="preserve">
<path fill="#111827" opacity="1.000000" stroke="none" 
	d="
M223.000000,501.000000 
	C148.666687,501.000000 74.833366,501.000000 1.000040,501.000000 
	C1.000026,334.333405 1.000026,167.666779 1.000013,1.000129 
	C167.666565,1.000086 334.333130,1.000086 500.999756,1.000043 
	C500.999847,167.666534 500.999847,334.333069 500.999939,500.999817 
	C408.500000,501.000000 316.000000,501.000000 223.000000,501.000000 
M48.463840,337.408051 
	C49.982075,338.273376 51.500309,339.138702 53.594288,340.360321 
	C62.359234,345.359619 71.124176,350.358917 80.327637,355.835083 
	C89.369774,361.132935 98.324104,366.592773 107.532799,371.583252 
	C109.245461,372.511444 112.395943,372.309814 114.175407,371.336365 
	C123.511894,366.228973 132.655533,360.763794 141.796692,355.306519 
	C147.913681,351.654694 153.914871,347.808899 160.575241,344.027771 
	C160.815048,343.705292 161.054840,343.382812 161.951950,343.105194 
	C163.332565,342.158539 164.713181,341.211914 166.827362,340.130646 
	C175.877289,334.966492 184.987198,329.902344 193.920898,324.544434 
	C195.498032,323.598541 197.324509,321.446747 197.359283,319.816071 
	C197.571716,309.854004 197.300446,299.881561 197.363861,289.054779 
	C197.266785,286.726196 197.169708,284.397644 197.262085,281.181519 
	C197.181885,278.782654 197.101685,276.383820 197.268982,273.108002 
	C197.201019,270.081299 197.133057,267.054596 197.299164,263.354095 
	C197.223022,262.891235 197.146896,262.428406 197.310059,261.087921 
	C197.235046,258.065735 197.160034,255.043533 197.330002,251.108932 
	C197.375229,242.289291 197.575012,233.465408 197.333618,224.653610 
	C197.286072,222.917725 195.972397,220.500397 194.508636,219.625671 
	C167.667267,203.586105 140.740250,187.688721 113.717598,171.956650 
	C112.130363,171.032608 109.107124,170.944305 107.548233,171.844986 
	C80.329132,187.571259 53.222771,203.493088 26.150726,219.472076 
	C24.919348,220.198898 23.486515,221.832520 23.433767,223.097412 
	C23.170547,229.409454 23.275494,235.741348 23.467581,242.059647 
	C23.483437,242.581146 25.116938,243.053452 25.985300,243.849396 
	C25.981007,244.049988 25.983009,244.250504 25.065329,243.686172 
	C24.503445,244.732422 23.462830,245.776016 23.457020,246.825348 
	C23.417990,253.872803 23.598866,260.921478 23.427919,268.871857 
	C23.487310,278.559204 23.546703,288.246582 23.307119,298.704437 
	C23.278599,305.691589 23.155312,312.680664 23.300150,319.664246 
	C23.329723,321.090179 23.959906,323.155212 25.006454,323.799469 
	C30.500452,327.181213 36.217228,330.201050 42.264866,333.859344 
	C44.153301,334.913879 46.041737,335.968414 48.463840,337.408051 
M416.792847,189.077835 
	C416.792847,198.540817 416.792847,208.003784 416.792847,218.071991 
	C423.241882,218.071991 429.306458,218.071991 435.430908,218.071991 
	C435.430908,220.928421 435.430908,223.169052 435.430908,225.630188 
	C426.510437,225.630188 417.930664,225.630188 408.615967,225.630188 
	C408.615967,219.316147 408.615967,213.268661 408.615967,207.068329 
	C404.598267,207.068329 401.317230,207.068329 397.304810,207.068329 
	C397.304810,213.352615 397.304810,219.407867 397.304810,225.616516 
	C387.993134,225.616516 379.416046,225.616516 370.129181,225.616516 
	C370.129181,219.290710 370.129181,213.239258 370.129181,207.240234 
	C353.366241,207.240234 337.318237,207.240234 320.814392,207.240234 
	C320.814392,213.585983 320.814392,219.518112 320.814392,225.493774 
	C317.977692,225.493774 315.616150,225.493774 312.818848,225.493774 
	C312.818848,219.142273 312.818848,213.207275 312.818848,207.227936 
	C308.984772,207.227936 305.610626,207.227936 301.740234,207.227936 
	C301.740234,213.552414 301.740234,219.476074 301.740234,225.580597 
	C298.989899,225.580597 296.747223,225.580597 294.005676,225.580597 
	C294.005676,206.585281 294.005676,187.834442 294.005676,168.858719 
	C290.094604,168.858719 286.689087,168.858719 283.180389,168.858719 
	C283.180389,191.635147 283.180389,214.060303 283.180389,236.610352 
	C337.831238,236.610352 392.195465,236.610352 446.468597,236.610352 
	C446.468597,220.165680 446.468597,204.117310 446.468597,188.253540 
	C436.412537,188.253540 426.796661,188.253540 416.792847,189.077835 
M274.802643,219.514557 
	C274.802643,215.411835 274.802643,211.309128 274.802643,207.162186 
	C257.942261,207.162186 241.859894,207.162186 225.662796,207.162186 
	C225.662796,210.894043 225.662796,214.266602 225.662796,218.071899 
	C238.374008,218.071899 250.659897,218.071899 263.249817,218.071899 
	C263.249817,220.756363 263.249817,223.002640 263.249817,225.886993 
	C250.604675,225.886993 238.199295,225.886993 225.619293,225.886993 
	C225.619293,229.909332 225.619293,233.287888 225.619293,236.693359 
	C242.096436,236.693359 258.183258,236.693359 274.802612,236.693359 
	C274.802612,231.097336 274.802612,225.803238 274.802643,219.514557 
M256.972687,334.438660 
	C258.162659,340.316681 261.035553,344.996460 266.702454,347.471558 
	C273.423035,350.406921 279.525238,349.023163 285.592712,343.345886 
	C285.592712,351.707520 285.592712,358.966248 285.592712,366.315521 
	C287.983307,366.315521 289.835571,366.315521 291.666992,366.315521 
	C291.666992,347.643982 291.666992,329.414551 291.666992,310.959320 
	C289.615662,310.959320 287.848846,310.959320 286.031128,310.959320 
	C285.636902,312.332489 285.294220,313.526031 284.905609,314.879547 
	C276.028687,305.424927 260.403961,309.909180 257.393341,322.748718 
	C256.578247,326.224792 257.008209,329.992798 256.972687,334.438660 
M454.898590,194.500000 
	C454.898590,208.566986 454.898590,222.633972 454.898590,236.567322 
	C459.058411,236.567322 462.434845,236.567322 465.632477,236.567322 
	C465.632477,213.737900 465.632477,191.342072 465.632477,168.869568 
	C462.003174,168.869568 458.744049,168.869568 454.898560,168.869568 
	C454.898560,177.281021 454.898560,185.390503 454.898590,194.500000 
M459.566071,295.860992 
	C458.994690,297.192139 457.982910,298.506134 457.930389,299.857452 
	C457.734100,304.909454 457.851959,309.973663 457.851959,315.555206 
	C449.553436,308.406036 440.458130,308.228455 434.132446,314.557312 
	C427.182465,321.510895 426.888062,335.979004 433.543091,343.521759 
	C439.721649,350.524475 448.816772,350.641571 457.558258,343.632538 
	C457.789886,345.126068 457.998901,346.473755 458.241669,348.039124 
	C460.286560,347.937927 462.027985,347.851746 464.071381,347.750641 
	C464.071381,331.061066 464.127930,314.769135 463.919495,298.480621 
	C463.907990,297.580444 461.697876,296.708374 459.566071,295.860992 
M409.974548,314.347290 
	C411.306946,318.251465 412.639343,322.155670 414.381012,327.259033 
	C401.957642,321.506592 395.474182,321.964996 390.635406,328.036774 
	C386.925293,332.692261 386.876160,339.756226 390.522675,344.228882 
	C395.228394,350.000641 402.214813,350.388733 412.082184,346.665894 
	C414.234497,347.197632 416.386810,347.729370 419.012543,348.378082 
	C419.012543,339.661591 419.079437,332.024902 418.994415,324.389893 
	C418.902466,316.132080 416.676941,312.492004 410.843994,310.644684 
	C402.835114,308.108154 394.495392,310.439453 390.417786,316.279541 
	C391.300079,317.495789 392.168701,318.693176 393.336853,320.303497 
	C397.482361,313.835693 402.344604,310.878998 409.974548,314.347290 
M352.819489,321.279907 
	C353.030304,326.990082 357.223907,329.086914 361.651489,330.870544 
	C364.879639,332.170990 368.438385,332.853333 371.368103,334.613098 
	C373.018341,335.604279 374.799866,338.408752 374.520020,340.056244 
	C374.185699,342.024414 372.042999,344.356323 370.096680,345.244598 
	C365.603241,347.295288 359.535370,345.119415 357.155243,340.668549 
	C355.632751,337.821442 354.061340,337.279999 351.385376,338.501556 
	C353.176849,345.580933 358.326782,348.993896 366.894196,348.933502 
	C374.338745,348.881012 379.193817,345.656616 380.182404,340.108398 
	C381.312347,333.766724 378.389282,329.750732 370.691833,327.068848 
	C367.557281,325.976715 364.179688,325.294342 361.381226,323.635162 
	C359.750488,322.668335 358.014191,320.018036 358.207458,318.342163 
	C358.414703,316.545288 360.536957,314.124756 362.339294,313.524109 
	C366.709106,312.067902 370.796661,312.964355 373.788544,317.133850 
	C374.584045,318.242462 376.381744,318.631897 378.745117,319.903442 
	C376.363464,312.189575 370.992188,309.257996 363.168518,309.988770 
	C356.782532,310.585297 353.528809,313.898193 352.819489,321.279907 
M312.935364,301.861725 
	C312.567474,297.073853 309.231171,299.692535 306.338196,299.071716 
	C306.338196,303.051910 306.338196,306.619598 306.338196,310.181915 
	C303.800659,310.591644 301.933319,310.893158 300.065948,311.194702 
	C299.967926,311.714874 299.869904,312.235046 299.771881,312.755249 
	C301.787323,313.312805 303.802765,313.870392 306.455688,314.604309 
	C306.455688,321.860901 306.352631,329.318146 306.493744,336.770752 
	C306.580658,341.360199 308.131500,345.300537 312.810272,347.182922 
	C317.335693,349.003601 321.250122,347.843048 324.998260,344.414948 
	C323.949219,343.302917 322.966003,342.260712 322.486511,341.752441 
	C319.888306,342.912140 317.854279,344.142609 315.660522,344.590240 
	C315.052277,344.714355 313.245850,342.530609 313.219666,341.377777 
	C313.013184,332.282745 313.104950,323.180969 313.104950,314.151855 
	C316.463013,313.818268 319.253693,313.541016 322.044373,313.263763 
	C322.002655,312.548492 321.960907,311.833221 321.919189,311.117950 
	C319.092072,310.867004 316.264954,310.616028 312.942078,310.321045 
	C312.942078,307.716827 312.942078,305.248352 312.935364,301.861725 
M236.574448,295.807434 
	C233.211212,295.528046 233.966293,297.995636 233.963089,299.835510 
	C233.937088,314.771393 233.939743,329.707367 233.970474,344.643250 
	C233.972702,345.727722 234.264145,346.811615 234.445343,348.063049 
	C236.672623,347.959961 238.581116,347.871643 240.834152,347.767365 
	C240.834152,331.051025 240.891251,314.813080 240.687500,298.578400 
	C240.675705,297.638885 238.545166,296.725922 236.574448,295.807434 
M334.051575,326.503723 
	C334.051575,333.596161 334.051575,340.688599 334.051575,347.743530 
	C336.477966,347.743530 338.247070,347.743530 340.175171,347.743530 
	C340.175171,335.407135 340.175171,323.335571 340.175171,311.012787 
	C338.144806,311.012787 336.379333,311.012787 334.051575,311.012787 
	C334.051575,315.948975 334.051575,320.727325 334.051575,326.503723 
M397.323944,190.892410 
	C397.323944,193.145721 397.323944,195.399048 397.323944,197.703430 
	C401.439697,197.703430 404.815826,197.703430 408.409424,197.703430 
	C408.409424,194.333954 408.409424,191.295609 408.409424,187.256424 
	C404.548096,189.059586 400.177551,184.931503 397.323944,190.892410 
M421.614807,178.936020 
	C423.538208,178.936020 425.461578,178.936020 427.474609,178.936020 
	C427.474609,175.138718 427.474609,172.088257 427.474609,168.906433 
	C423.737030,168.906433 420.364655,168.906433 416.610657,168.906433 
	C416.610657,171.284882 416.770233,173.273132 416.574829,175.225845 
	C416.246887,178.503174 417.877014,179.335281 421.614807,178.936020 
M383.542969,187.671112 
	C381.921967,187.744461 380.300934,187.817825 378.565674,187.896347 
	C378.565674,191.409164 378.565674,194.479782 378.565674,197.662872 
	C382.287750,197.662872 385.667694,197.662872 389.142914,197.662872 
	C389.142914,194.251328 389.142914,191.187515 389.142914,187.912582 
	C387.329681,187.820557 385.861267,187.746033 383.542969,187.671112 
M441.453369,168.498260 
	C439.692657,168.582947 437.931976,168.667618 436.116821,168.754913 
	C436.116821,172.333008 436.116821,175.392365 436.116821,178.544739 
	C439.833527,178.544739 443.192200,178.544739 446.728027,178.544739 
	C446.728027,175.209259 446.728027,172.264542 446.728027,168.894180 
	C445.191345,168.756226 443.761749,168.627899 441.453369,168.498260 
M340.859650,297.222656 
	C338.904755,296.695099 336.943085,295.821259 334.999207,295.859131 
	C334.444031,295.869965 333.160034,298.869080 333.606873,299.881683 
	C334.190002,301.203186 336.162659,301.911499 337.537476,302.883636 
	C338.707672,301.222198 339.877838,299.560791 340.859650,297.222656 
z"/>
<path fill="#131928" opacity="1.000000" stroke="none" 
	d="
M25.991306,244.450943 
	C25.983009,244.250504 25.981007,244.049988 26.545116,243.800934 
	C27.349117,238.467300 27.860939,233.175980 27.739649,227.899200 
	C27.663826,224.600601 28.816591,222.875443 31.627661,221.247940 
	C56.702065,206.730942 81.707947,192.094757 106.655502,177.360703 
	C109.407684,175.735260 111.399963,175.527359 114.282227,177.245605 
	C139.311157,192.166702 164.424133,206.947906 189.602051,221.616318 
	C192.336288,223.209274 193.100128,225.023697 193.059784,227.992203 
	C192.946594,236.317612 193.133804,244.647095 193.090256,253.421936 
	C193.064819,257.242279 193.151672,260.615631 193.183746,264.362762 
	C193.167709,265.489014 193.206436,266.241547 193.126022,267.448547 
	C193.091782,278.923584 193.176666,289.944183 193.188232,301.388824 
	C193.167145,303.527313 193.219376,305.241760 193.170532,307.411896 
	C193.041168,309.695099 192.776794,311.556030 193.029877,313.343689 
	C193.724594,318.250977 191.951477,321.184601 187.363419,323.519409 
	C180.284256,327.121887 173.664032,331.626221 166.586060,335.842896 
	C166.128159,336.249573 165.933380,336.561432 165.759735,336.861938 
	C165.780884,336.850555 165.734711,336.832916 165.413818,336.819214 
	C164.057266,337.497070 163.021622,338.188629 161.646790,338.869446 
	C160.757080,339.207886 160.206573,339.557098 159.352097,340.052490 
	C144.582153,348.659912 130.052292,357.015106 115.695198,365.657227 
	C112.118484,367.810242 109.359932,367.990326 105.720596,365.732330 
	C97.967255,360.921967 89.898941,356.619232 81.655304,351.949158 
	C74.627998,347.842926 67.905098,343.895966 60.979107,339.701538 
	C60.191410,339.215881 59.606812,338.977692 59.049606,338.816650 
	C59.077000,338.893799 59.230473,338.836761 59.040367,338.576752 
	C58.257572,338.088165 57.664879,337.859589 57.099464,337.711304 
	C57.126736,337.791626 57.285889,337.732910 57.077869,337.485382 
	C56.244480,337.150208 55.619110,337.062561 54.875603,336.898071 
	C54.757465,336.821167 54.476318,336.842163 54.334488,336.587463 
	C53.858368,336.148468 53.524075,335.964172 53.166016,335.828430 
	C53.142242,335.877045 53.240826,335.921692 53.124046,335.660400 
	C52.667328,335.268250 52.327393,335.137360 51.701149,334.825623 
	C49.263538,333.427521 47.112232,332.210266 44.714302,330.769501 
	C40.680401,328.017578 37.108013,325.044250 33.046879,323.082947 
	C28.777515,321.021118 27.620747,318.135406 27.837030,313.699066 
	C28.049160,309.347931 27.466795,304.958069 27.420609,300.103027 
	C27.570034,289.076721 27.531965,278.532593 27.599911,267.552185 
	C27.734005,260.624969 27.844334,254.132278 27.708868,247.644745 
	C27.686398,246.568649 26.590923,245.514984 25.991306,244.450943 
M102.808456,300.956543 
	C103.410957,299.967468 104.013458,298.978394 104.729904,297.090698 
	C104.646996,294.372009 104.564087,291.653320 104.702431,288.029846 
	C104.711250,278.035339 104.720062,268.040863 104.879005,257.516052 
	C104.606438,257.326874 104.333870,257.137695 103.424400,256.806824 
	C102.991196,256.820648 102.557999,256.834473 102.056854,255.932007 
	C102.056854,247.883224 102.056854,239.834442 102.056854,231.785645 
	C101.330467,231.796127 100.604073,231.806610 99.877686,231.817078 
	C99.877686,240.154587 99.877686,248.492111 99.259438,256.943237 
	C98.842133,256.978088 98.424828,257.012939 97.440300,257.027618 
	C97.389946,257.370544 97.339600,257.713470 97.210533,258.983337 
	C97.352043,267.305847 97.493561,275.628357 97.359665,284.801270 
	C97.402245,288.288666 97.444824,291.776093 97.215080,295.882324 
	C96.607117,298.687012 97.384415,300.770935 100.086266,302.711823 
	C100.086266,309.138519 100.086266,315.565186 100.086266,321.991882 
	C100.763908,321.987701 101.441559,321.983490 102.119202,321.979309 
	C102.119202,315.027985 102.119202,308.076691 102.808456,300.956543 
M71.950684,309.072632 
	C71.950684,313.638458 71.950684,318.204315 71.950684,322.770142 
	C72.526031,322.752625 73.101379,322.735138 73.676727,322.717621 
	C73.676727,318.012390 73.676727,313.307159 74.063698,308.239471 
	C74.364876,308.054474 74.666054,307.869507 75.574738,307.805481 
	C75.926414,307.193451 76.278099,306.581451 76.815865,305.074127 
	C76.779755,301.728546 76.743645,298.382965 76.898689,294.113525 
	C76.932610,289.398132 77.190903,284.667145 76.864151,279.976868 
	C76.765724,278.564117 75.041222,277.264618 74.059906,274.987610 
	C74.059906,268.710602 74.059906,262.433624 74.059906,256.156616 
	C73.377357,256.155914 72.694801,256.155212 72.012253,256.154510 
	C72.012253,262.769318 72.012253,269.384155 71.272285,276.268951 
	C70.576447,277.537628 69.302513,278.795624 69.278931,280.076691 
	C69.129860,288.173492 69.190414,296.276886 69.371666,304.373871 
	C69.397057,305.508057 70.463074,306.618958 71.454971,307.967163 
	C71.454971,307.967163 71.878098,308.163116 71.950684,309.072632 
M143.979156,244.105087 
	C143.979156,236.985611 143.979156,229.866135 143.979156,222.746658 
	C143.339432,222.744858 142.699707,222.743057 142.059982,222.741257 
	C142.059982,230.179916 142.059982,237.618561 141.299500,245.323441 
	C136.407425,248.547974 140.302277,252.907257 138.915466,257.130554 
	C142.062027,256.973480 144.272385,256.863129 146.820648,256.735901 
	C146.820648,253.706619 147.148987,251.174500 146.694321,248.791809 
	C146.432358,247.418991 144.904251,246.287781 143.979156,244.105087 
M127.857002,284.253265 
	C127.857002,289.783936 127.857002,295.314575 127.857002,300.845245 
	C128.638611,300.832245 129.420227,300.819244 130.201828,300.806213 
	C130.201828,294.986450 130.201828,289.166656 130.976883,283.131073 
	C131.628204,281.949158 132.793549,280.785889 132.837204,279.581940 
	C132.984818,275.509430 132.734894,271.422455 132.781494,266.386963 
	C132.744629,257.610413 132.707748,248.833847 132.639633,239.457993 
	C132.097244,239.334808 131.554855,239.211624 130.603500,238.922729 
	C130.603500,238.922729 130.192596,238.761795 130.109879,237.856705 
	C129.973816,231.224670 129.837753,224.592651 129.701691,217.960617 
	C129.061554,217.981323 128.421417,218.002029 127.781273,218.022736 
	C127.781273,224.927292 127.781273,231.831848 127.190285,238.860031 
	C126.804871,238.959961 126.419456,239.059875 125.562332,239.211044 
	C125.246582,239.442535 125.193565,239.723633 125.278923,240.976883 
	C125.410469,252.275345 125.542007,263.573792 125.396202,275.700409 
	C126.172691,278.262268 123.107773,282.022308 127.857002,284.253265 
M60.915409,318.375061 
	C61.348644,318.300018 61.781876,318.224945 62.704689,317.923035 
	C62.776093,317.587067 62.847496,317.251129 62.917896,315.997101 
	C62.937759,311.677734 62.957623,307.358337 62.947701,302.471771 
	C62.623970,302.315247 62.300240,302.158752 61.371769,301.956207 
	C60.870140,301.693604 60.368511,301.430969 60.008007,300.225220 
	C60.008007,296.114410 60.008007,292.003632 60.008007,287.892822 
	C59.369705,287.903381 58.731403,287.913910 58.093102,287.924469 
	C58.093102,292.323395 58.093102,296.722290 57.444553,301.384613 
	C56.821728,301.841461 55.669228,302.285858 55.658138,302.757080 
	C55.549038,307.392639 55.552509,312.035919 55.748299,316.667542 
	C55.774551,317.288452 57.043961,317.856812 57.934616,319.305023 
	C58.164806,323.534149 58.395000,327.763275 58.625191,331.992371 
	C59.175312,331.958801 59.725437,331.925232 60.275558,331.891632 
	C60.275558,327.439758 60.275558,322.987854 60.915409,318.375061 
M88.339325,298.386597 
	C89.207024,296.901764 90.730583,295.452789 90.814201,293.925018 
	C91.028564,290.008118 91.872910,285.244537 90.036674,282.371918 
	C88.534233,280.021484 87.631310,278.135223 87.611420,275.559998 
	C87.591652,273.001740 87.607086,270.443207 87.607086,267.884827 
	C86.282059,273.161316 88.010979,278.606018 83.624794,283.722534 
	C81.504570,286.195770 83.188530,292.029083 83.430084,296.325348 
	C83.467873,296.997467 85.002113,297.585449 85.977837,299.113464 
	C86.142754,304.635590 86.307663,310.157745 86.472572,315.679871 
	C86.887222,315.656982 87.301872,315.634125 87.716522,315.611237 
	C87.716522,310.030243 87.716522,304.449280 88.339325,298.386597 
M158.723206,256.724457 
	C159.376099,255.919693 160.582611,255.124466 160.596649,254.308731 
	C160.744629,245.698456 160.807602,237.082153 160.580368,228.475784 
	C160.551819,227.393890 158.718018,226.359650 157.848373,224.335663 
	C157.848373,219.270676 157.848373,214.205704 157.848373,209.140717 
	C157.322891,209.162460 156.797424,209.184204 156.271942,209.205948 
	C156.271942,214.571609 156.271942,219.937256 155.598999,225.726349 
	C154.747879,226.830505 153.185776,227.918015 153.159485,229.041489 
	C152.970200,237.127243 152.969193,245.224487 153.243759,253.306702 
	C153.286743,254.571960 155.031601,255.779404 155.981491,257.948395 
	C155.981491,263.559326 155.981491,269.170227 155.981491,274.781158 
	C156.650574,274.765533 157.319672,274.749939 157.988754,274.734314 
	C157.988754,268.814880 157.988754,262.895477 158.723206,256.724457 
M116.128036,278.184235 
	C122.362953,276.364502 117.370903,271.543396 119.015343,268.925690 
	C117.001892,267.619019 115.413528,266.588226 114.775909,266.174438 
	C114.934196,266.002777 114.349129,267.149384 113.441032,267.534698 
	C109.145142,269.357422 111.686424,272.975342 111.419655,275.707031 
	C111.346115,276.459991 113.958649,277.475281 116.128036,278.184235 
z"/>
<path fill="#BE9656" opacity="1.000000" stroke="none" 
	d="
M416.986816,188.665680 
	C426.796661,188.253540 436.412537,188.253540 446.468597,188.253540 
	C446.468597,204.117310 446.468597,220.165680 446.468597,236.610352 
	C392.195465,236.610352 337.831238,236.610352 283.180389,236.610352 
	C283.180389,214.060303 283.180389,191.635147 283.180389,168.858719 
	C286.689087,168.858719 290.094604,168.858719 294.005676,168.858719 
	C294.005676,187.834442 294.005676,206.585281 294.005676,225.580597 
	C296.747223,225.580597 298.989899,225.580597 301.740234,225.580597 
	C301.740234,219.476074 301.740234,213.552414 301.740234,207.227936 
	C305.610626,207.227936 308.984772,207.227936 312.818848,207.227936 
	C312.818848,213.207275 312.818848,219.142273 312.818848,225.493774 
	C315.616150,225.493774 317.977692,225.493774 320.814392,225.493774 
	C320.814392,219.518112 320.814392,213.585983 320.814392,207.240234 
	C337.318237,207.240234 353.366241,207.240234 370.129181,207.240234 
	C370.129181,213.239258 370.129181,219.290710 370.129181,225.616516 
	C379.416046,225.616516 387.993134,225.616516 397.304810,225.616516 
	C397.304810,219.407867 397.304810,213.352615 397.304810,207.068329 
	C401.317230,207.068329 404.598267,207.068329 408.615967,207.068329 
	C408.615967,213.268661 408.615967,219.316147 408.615967,225.630188 
	C417.930664,225.630188 426.510437,225.630188 435.430908,225.630188 
	C435.430908,223.169052 435.430908,220.928421 435.430908,218.071991 
	C429.306458,218.071991 423.241882,218.071991 416.792847,218.071991 
	C416.792847,208.003784 416.792847,198.540817 416.986816,188.665680 
M357.205200,217.969574 
	C348.939178,217.969574 340.673157,217.969574 332.330627,217.969574 
	C332.330627,220.880219 332.330627,223.129654 332.330627,225.565002 
	C341.334015,225.565002 350.047668,225.565002 359.516632,225.565002 
	C359.001678,222.783188 358.569763,220.449875 357.205200,217.969574 
M434.876892,206.521805 
	C435.206573,204.112381 435.536285,201.702957 435.881836,199.177902 
	C432.710876,199.177902 430.492767,199.177902 428.255066,199.177902 
	C428.255066,201.841766 428.255066,204.171951 428.255066,206.756592 
	C430.476196,206.756592 432.259674,206.756592 434.876892,206.521805 
z"/>
<path fill="#DEBD86" opacity="1.000000" stroke="none" 
	d="
M193.202530,252.974976 
	C193.133804,244.647095 192.946594,236.317612 193.059784,227.992203 
	C193.100128,225.023697 192.336288,223.209274 189.602051,221.616318 
	C164.424133,206.947906 139.311157,192.166702 114.282227,177.245605 
	C111.399963,175.527359 109.407684,175.735260 106.655502,177.360703 
	C81.707947,192.094757 56.702065,206.730942 31.627661,221.247940 
	C28.816591,222.875443 27.663826,224.600601 27.739649,227.899200 
	C27.860939,233.175980 27.349117,238.467300 26.551880,243.650543 
	C25.116938,243.053452 23.483437,242.581146 23.467581,242.059647 
	C23.275494,235.741348 23.170547,229.409454 23.433767,223.097412 
	C23.486515,221.832520 24.919348,220.198898 26.150726,219.472076 
	C53.222771,203.493088 80.329132,187.571259 107.548233,171.844986 
	C109.107124,170.944305 112.130363,171.032608 113.717598,171.956650 
	C140.740250,187.688721 167.667267,203.586105 194.508636,219.625671 
	C195.972397,220.500397 197.286072,222.917725 197.333618,224.653610 
	C197.575012,233.465408 197.375229,242.289291 196.880585,251.580200 
	C195.629852,252.348022 194.828537,252.644577 193.820465,252.935547 
	C193.613708,252.929977 193.202530,252.974976 193.202530,252.974976 
z"/>
<path fill="#BC9555" opacity="1.000000" stroke="none" 
	d="
M274.802612,220.011841 
	C274.802612,225.803238 274.802612,231.097336 274.802612,236.693359 
	C258.183258,236.693359 242.096436,236.693359 225.619293,236.693359 
	C225.619293,233.287888 225.619293,229.909332 225.619293,225.886993 
	C238.199295,225.886993 250.604675,225.886993 263.249817,225.886993 
	C263.249817,223.002640 263.249817,220.756363 263.249817,218.071899 
	C250.659897,218.071899 238.374008,218.071899 225.662796,218.071899 
	C225.662796,214.266602 225.662796,210.894043 225.662796,207.162186 
	C241.859894,207.162186 257.942261,207.162186 274.802643,207.162186 
	C274.802643,211.309128 274.802643,215.411835 274.802612,220.011841 
z"/>
<path fill="#CAA465" opacity="1.000000" stroke="none" 
	d="
M256.919708,334.032745 
	C257.008209,329.992798 256.578247,326.224792 257.393341,322.748718 
	C260.403961,309.909180 276.028687,305.424927 284.905609,314.879547 
	C285.294220,313.526031 285.636902,312.332489 286.031128,310.959320 
	C287.848846,310.959320 289.615662,310.959320 291.666992,310.959320 
	C291.666992,329.414551 291.666992,347.643982 291.666992,366.315521 
	C289.835571,366.315521 287.983307,366.315521 285.592712,366.315521 
	C285.592712,358.966248 285.592712,351.707520 285.592712,343.345886 
	C279.525238,349.023163 273.423035,350.406921 266.702454,347.471558 
	C261.035553,344.996460 258.162659,340.316681 256.919708,334.032745 
M273.807220,344.919708 
	C279.248322,345.321106 283.380371,342.685608 284.316040,337.709961 
	C285.333771,332.298035 285.581604,326.349426 284.419250,321.015228 
	C282.848206,313.805756 273.843231,311.308685 268.432739,316.015289 
	C262.804291,320.911499 263.293945,327.629791 264.065277,334.115753 
	C264.697906,339.435242 267.342743,343.505768 273.807220,344.919708 
z"/>
<path fill="#BF9756" opacity="1.000000" stroke="none" 
	d="
M454.898560,194.000000 
	C454.898560,185.390503 454.898560,177.281021 454.898560,168.869568 
	C458.744049,168.869568 462.003174,168.869568 465.632477,168.869568 
	C465.632477,191.342072 465.632477,213.737900 465.632477,236.567322 
	C462.434845,236.567322 459.058411,236.567322 454.898590,236.567322 
	C454.898590,222.633972 454.898590,208.566986 454.898560,194.000000 
z"/>
<path fill="#CDA666" opacity="1.000000" stroke="none" 
	d="
M460.038574,295.842102 
	C461.697876,296.708374 463.907990,297.580444 463.919495,298.480621 
	C464.127930,314.769135 464.071381,331.061066 464.071381,347.750641 
	C462.027985,347.851746 460.286560,347.937927 458.241669,348.039124 
	C457.998901,346.473755 457.789886,345.126068 457.558258,343.632538 
	C448.816772,350.641571 439.721649,350.524475 433.543091,343.521759 
	C426.888062,335.979004 427.182465,321.510895 434.132446,314.557312 
	C440.458130,308.228455 449.553436,308.406036 457.851959,315.555206 
	C457.851959,309.973663 457.734100,304.909454 457.930389,299.857452 
	C457.982910,298.506134 458.994690,297.192139 460.038574,295.842102 
M444.971954,313.994415 
	C436.587463,317.064392 433.063049,328.179565 437.342194,338.149994 
	C439.236542,342.563873 442.584839,345.045380 447.431305,344.938629 
	C452.366669,344.829956 455.922455,341.993713 456.814575,337.418915 
	C457.717987,332.786041 457.851135,327.799683 457.214844,323.118622 
	C456.314819,316.497192 452.613434,313.956848 444.971954,313.994415 
z"/>
<path fill="#C9A365" opacity="1.000000" stroke="none" 
	d="
M409.633301,314.115417 
	C402.344604,310.878998 397.482361,313.835693 393.336853,320.303497 
	C392.168701,318.693176 391.300079,317.495789 390.417786,316.279541 
	C394.495392,310.439453 402.835114,308.108154 410.843994,310.644684 
	C416.676941,312.492004 418.902466,316.132080 418.994415,324.389893 
	C419.079437,332.024902 419.012543,339.661591 419.012543,348.378082 
	C416.386810,347.729370 414.234497,347.197632 412.082184,346.665894 
	C402.214813,350.388733 395.228394,350.000641 390.522675,344.228882 
	C386.876160,339.756226 386.925293,332.692261 390.635406,328.036774 
	C395.474182,321.964996 401.957642,321.506592 414.381012,327.259033 
	C412.639343,322.155670 411.306946,318.251465 409.633301,314.115417 
M401.258575,326.526398 
	C393.305817,330.280518 391.626709,339.401642 398.062256,344.046356 
	C401.805542,346.747955 405.504974,346.297699 409.158112,343.742523 
	C413.171112,340.935638 414.083893,336.842133 412.589325,332.711578 
	C410.930023,328.125702 407.273224,325.565338 401.258575,326.526398 
z"/>
<path fill="#C9A365" opacity="1.000000" stroke="none" 
	d="
M352.810120,320.912476 
	C353.528809,313.898193 356.782532,310.585297 363.168518,309.988770 
	C370.992188,309.257996 376.363464,312.189575 378.745117,319.903442 
	C376.381744,318.631897 374.584045,318.242462 373.788544,317.133850 
	C370.796661,312.964355 366.709106,312.067902 362.339294,313.524109 
	C360.536957,314.124756 358.414703,316.545288 358.207458,318.342163 
	C358.014191,320.018036 359.750488,322.668335 361.381226,323.635162 
	C364.179688,325.294342 367.557281,325.976715 370.691833,327.068848 
	C378.389282,329.750732 381.312347,333.766724 380.182404,340.108398 
	C379.193817,345.656616 374.338745,348.881012 366.894196,348.933502 
	C358.326782,348.993896 353.176849,345.580933 351.385376,338.501556 
	C354.061340,337.279999 355.632751,337.821442 357.155243,340.668549 
	C359.535370,345.119415 365.603241,347.295288 370.096680,345.244598 
	C372.042999,344.356323 374.185699,342.024414 374.520020,340.056244 
	C374.799866,338.408752 373.018341,335.604279 371.368103,334.613098 
	C368.438385,332.853333 364.879639,332.170990 361.651489,330.870544 
	C357.223907,329.086914 353.030304,326.990082 352.810120,320.912476 
z"/>
<path fill="#A6844F" opacity="1.000000" stroke="none" 
	d="
M81.959717,352.108429 
	C89.898941,356.619232 97.967255,360.921967 105.720596,365.732330 
	C109.359932,367.990326 112.118484,367.810242 115.695198,365.657227 
	C130.052292,357.015106 144.582153,348.659912 159.674500,340.004700 
	C160.862579,339.500549 161.424286,339.190369 161.985992,338.880188 
	C163.021622,338.188629 164.057266,337.497070 165.449875,337.249573 
	C165.902481,338.550812 165.998138,339.408020 166.093796,340.265259 
	C164.713181,341.211914 163.332565,342.158539 161.389496,343.231049 
	C160.540649,343.587921 160.254272,343.818909 159.967896,344.049896 
	C153.914871,347.808899 147.913681,351.654694 141.796692,355.306519 
	C132.655533,360.763794 123.511894,366.228973 114.175407,371.336365 
	C112.395943,372.309814 109.245461,372.511444 107.532799,371.583252 
	C98.324104,366.592773 89.369774,361.132935 80.203247,355.284729 
	C80.705811,353.859070 81.332764,352.983734 81.959717,352.108429 
z"/>
<path fill="#C29E62" opacity="1.000000" stroke="none" 
	d="
M312.938721,302.320801 
	C312.942078,305.248352 312.942078,307.716827 312.942078,310.321045 
	C316.264954,310.616028 319.092072,310.867004 321.919189,311.117950 
	C321.960907,311.833221 322.002655,312.548492 322.044373,313.263763 
	C319.253693,313.541016 316.463013,313.818268 313.104950,314.151855 
	C313.104950,323.180969 313.013184,332.282745 313.219666,341.377777 
	C313.245850,342.530609 315.052277,344.714355 315.660522,344.590240 
	C317.854279,344.142609 319.888306,342.912140 322.486511,341.752441 
	C322.966003,342.260712 323.949219,343.302917 324.998260,344.414948 
	C321.250122,347.843048 317.335693,349.003601 312.810272,347.182922 
	C308.131500,345.300537 306.580658,341.360199 306.493744,336.770752 
	C306.352631,329.318146 306.455688,321.860901 306.455688,314.604309 
	C303.802765,313.870392 301.787323,313.312805 299.771881,312.755249 
	C299.869904,312.235046 299.967926,311.714874 300.065948,311.194702 
	C301.933319,310.893158 303.800659,310.591644 306.338196,310.181915 
	C306.338196,306.619598 306.338196,303.051910 306.338196,299.071716 
	C309.231171,299.692535 312.567474,297.073853 312.938721,302.320801 
z"/>
<path fill="#CAA465" opacity="1.000000" stroke="none" 
	d="
M236.987564,295.804016 
	C238.545166,296.725922 240.675705,297.638885 240.687500,298.578400 
	C240.891251,314.813080 240.834152,331.051025 240.834152,347.767365 
	C238.581116,347.871643 236.672623,347.959961 234.445343,348.063049 
	C234.264145,346.811615 233.972702,345.727722 233.970474,344.643250 
	C233.939743,329.707367 233.937088,314.771393 233.963089,299.835510 
	C233.966293,297.995636 233.211212,295.528046 236.987564,295.804016 
z"/>
<path fill="#B89965" opacity="1.000000" stroke="none" 
	d="
M166.460571,340.197937 
	C165.998138,339.408020 165.902481,338.550812 165.770782,337.263245 
	C165.734711,336.832916 165.780884,336.850555 165.983765,336.713684 
	C166.407471,336.300537 166.628326,336.024292 166.849167,335.748047 
	C173.664032,331.626221 180.284256,327.121887 187.363419,323.519409 
	C191.951477,321.184601 193.724594,318.250977 193.029877,313.343689 
	C192.776794,311.556030 193.041168,309.695099 193.538177,307.339905 
	C194.684631,305.169312 195.709961,303.579407 195.970184,301.872803 
	C196.573471,297.916046 196.806992,293.902893 197.190430,289.912598 
	C197.300446,299.881561 197.571716,309.854004 197.359283,319.816071 
	C197.324509,321.446747 195.498032,323.598541 193.920898,324.544434 
	C184.987198,329.902344 175.877289,334.966492 166.460571,340.197937 
z"/>
<path fill="#CDA666" opacity="1.000000" stroke="none" 
	d="
M334.051575,326.004700 
	C334.051575,320.727325 334.051575,315.948975 334.051575,311.012787 
	C336.379333,311.012787 338.144806,311.012787 340.175171,311.012787 
	C340.175171,323.335571 340.175171,335.407135 340.175171,347.743530 
	C338.247070,347.743530 336.477966,347.743530 334.051575,347.743530 
	C334.051575,340.688599 334.051575,333.596161 334.051575,326.004700 
z"/>
<path fill="#A78E63" opacity="1.000000" stroke="none" 
	d="
M27.233116,300.585205 
	C27.466795,304.958069 28.049160,309.347931 27.837030,313.699066 
	C27.620747,318.135406 28.777515,321.021118 33.046879,323.082947 
	C37.108013,325.044250 40.680401,328.017578 44.365517,330.820251 
	C43.461102,331.845245 42.658844,332.595947 41.856598,333.346619 
	C36.217228,330.201050 30.500452,327.181213 25.006454,323.799469 
	C23.959906,323.155212 23.329723,321.090179 23.300150,319.664246 
	C23.155312,312.680664 23.278599,305.691589 23.808880,298.453979 
	C25.284800,298.997406 26.258957,299.791321 27.233116,300.585205 
z"/>
<path fill="#B38E52" opacity="1.000000" stroke="none" 
	d="
M81.655304,351.949158 
	C81.332764,352.983734 80.705811,353.859070 79.983994,355.046326 
	C71.124176,350.358917 62.359234,345.359619 53.294758,339.819092 
	C52.959648,338.554901 52.924068,337.831909 52.945023,337.053314 
	C53.001560,336.997681 53.114532,336.886322 53.455143,336.880371 
	C54.022610,336.863647 54.249462,336.852905 54.476318,336.842163 
	C54.476318,336.842163 54.757465,336.821167 55.128689,337.073059 
	C56.095238,337.460968 56.690563,337.596954 57.285889,337.732910 
	C57.285889,337.732910 57.126736,337.791626 57.311310,337.954224 
	C58.074081,338.356812 58.652271,338.596802 59.230469,338.836792 
	C59.230473,338.836761 59.077000,338.893799 59.271233,339.046631 
	C60.037712,339.449310 60.609959,339.699158 61.182205,339.949005 
	C67.905098,343.895966 74.627998,347.842926 81.655304,351.949158 
z"/>
<path fill="#D8B67E" opacity="1.000000" stroke="none" 
	d="
M27.420609,300.103027 
	C26.258957,299.791321 25.284800,298.997406 23.958370,298.068726 
	C23.546703,288.246582 23.487310,278.559204 23.946033,268.427673 
	C25.474064,267.985138 26.483982,267.986786 27.493898,267.988464 
	C27.531965,278.532593 27.570034,289.076721 27.420609,300.103027 
z"/>
<path fill="#B38E52" opacity="1.000000" stroke="none" 
	d="
M397.334808,190.470657 
	C400.177551,184.931503 404.548096,189.059586 408.409424,187.256424 
	C408.409424,191.295609 408.409424,194.333954 408.409424,197.703430 
	C404.815826,197.703430 401.439697,197.703430 397.323944,197.703430 
	C397.323944,195.399048 397.323944,193.145721 397.334808,190.470657 
z"/>
<path fill="#BC9555" opacity="1.000000" stroke="none" 
	d="
M421.168121,178.935730 
	C417.877014,179.335281 416.246887,178.503174 416.574829,175.225845 
	C416.770233,173.273132 416.610657,171.284882 416.610657,168.906433 
	C420.364655,168.906433 423.737030,168.906433 427.474609,168.906433 
	C427.474609,172.088257 427.474609,175.138718 427.474609,178.936020 
	C425.461578,178.936020 423.538208,178.936020 421.168121,178.935730 
z"/>
<path fill="#BC9555" opacity="1.000000" stroke="none" 
	d="
M383.967896,187.671310 
	C385.861267,187.746033 387.329681,187.820557 389.142914,187.912582 
	C389.142914,191.187515 389.142914,194.251328 389.142914,197.662872 
	C385.667694,197.662872 382.287750,197.662872 378.565674,197.662872 
	C378.565674,194.479782 378.565674,191.409164 378.565674,187.896347 
	C380.300934,187.817825 381.921967,187.744461 383.967896,187.671310 
z"/>
<path fill="#BC9555" opacity="1.000000" stroke="none" 
	d="
M441.892761,168.498917 
	C443.761749,168.627899 445.191345,168.756226 446.728027,168.894180 
	C446.728027,172.264542 446.728027,175.209259 446.728027,178.544739 
	C443.192200,178.544739 439.833527,178.544739 436.116821,178.544739 
	C436.116821,175.392365 436.116821,172.333008 436.116821,168.754913 
	C437.931976,168.667618 439.692657,168.582947 441.892761,168.498917 
z"/>
<path fill="#E5BE7C" opacity="1.000000" stroke="none" 
	d="
M27.599911,267.552185 
	C26.483982,267.986786 25.474064,267.985138 24.086304,267.976624 
	C23.598866,260.921478 23.417990,253.872803 23.457020,246.825348 
	C23.462830,245.776016 24.503445,244.732422 25.528316,244.068558 
	C26.590923,245.514984 27.686398,246.568649 27.708868,247.644745 
	C27.844334,254.132278 27.734005,260.624969 27.599911,267.552185 
z"/>
<path fill="#E5BE7C" opacity="1.000000" stroke="none" 
	d="
M194.027222,252.941132 
	C194.828537,252.644577 195.629852,252.348022 196.758087,252.036407 
	C197.160034,255.043533 197.235046,258.065735 197.044556,261.711853 
	C196.874420,262.899841 196.969757,263.463867 197.065094,264.027893 
	C197.133057,267.054596 197.201019,270.081299 196.943451,273.866943 
	C196.418411,276.389923 196.218887,278.153931 195.698425,279.929810 
	C194.949402,279.936035 194.521286,279.930389 194.088608,279.472412 
	C193.804398,275.011353 193.524765,271.002716 193.245148,266.994049 
	C193.206436,266.241547 193.167709,265.489014 193.372711,264.008667 
	C193.753372,259.834229 193.890289,256.387695 194.027222,252.941132 
z"/>
<path fill="#CDA666" opacity="1.000000" stroke="none" 
	d="
M194.093201,279.924774 
	C194.521286,279.930389 194.949402,279.936035 195.768982,280.226105 
	C196.464523,281.030060 196.768570,281.549561 197.072632,282.069061 
	C197.169708,284.397644 197.266785,286.726196 197.277130,289.483704 
	C196.806992,293.902893 196.573471,297.916046 195.970184,301.872803 
	C195.709961,303.579407 194.684631,305.169312 193.639236,306.884216 
	C193.219376,305.241760 193.167145,303.527313 193.361786,301.019897 
	C193.770172,293.459503 193.931686,286.692139 194.093201,279.924774 
z"/>
<path fill="#C9A365" opacity="1.000000" stroke="none" 
	d="
M340.953857,297.561005 
	C339.877838,299.560791 338.707672,301.222198 337.537476,302.883636 
	C336.162659,301.911499 334.190002,301.203186 333.606873,299.881683 
	C333.160034,298.869080 334.444031,295.869965 334.999207,295.859131 
	C336.943085,295.821259 338.904755,296.695099 340.953857,297.561005 
z"/>
<path fill="#B38E52" opacity="1.000000" stroke="none" 
	d="
M42.060730,333.602997 
	C42.658844,332.595947 43.461102,331.845245 44.612137,331.043823 
	C47.112232,332.210266 49.263538,333.427521 51.891720,335.001495 
	C52.659336,335.546051 52.950081,335.733856 53.240826,335.921692 
	C53.240826,335.921692 53.142242,335.877045 53.140396,336.104706 
	C53.130543,336.517029 53.122540,336.701660 53.114532,336.886322 
	C53.114532,336.886322 53.001560,336.997681 52.632233,337.015472 
	C50.818661,337.029816 49.374416,337.026367 47.930168,337.022949 
	C46.041737,335.968414 44.153301,334.913879 42.060730,333.602997 
z"/>
<path fill="#A78E63" opacity="1.000000" stroke="none" 
	d="
M48.197006,337.215515 
	C49.374416,337.026367 50.818661,337.029816 52.575699,337.071106 
	C52.924068,337.831909 52.959648,338.554901 53.006882,339.640930 
	C51.500309,339.138702 49.982075,338.273376 48.197006,337.215515 
z"/>
<path fill="#DEBD86" opacity="1.000000" stroke="none" 
	d="
M197.167358,281.625305 
	C196.768570,281.549561 196.464523,281.030060 196.089920,280.214233 
	C196.218887,278.153931 196.418411,276.389923 196.819702,274.305420 
	C197.101685,276.383820 197.181885,278.782654 197.167358,281.625305 
z"/>
<path fill="#DEBD86" opacity="1.000000" stroke="none" 
	d="
M197.182129,263.690979 
	C196.969757,263.463867 196.874420,262.899841 196.924911,262.150696 
	C197.146896,262.428406 197.223022,262.891235 197.182129,263.690979 
z"/>
<path fill="#B89965" opacity="1.000000" stroke="none" 
	d="
M160.271576,344.038818 
	C160.254272,343.818909 160.540649,343.587921 161.060837,343.208618 
	C161.054840,343.382812 160.815048,343.705292 160.271576,344.038818 
z"/>
<path fill="#D8B67E" opacity="1.000000" stroke="none" 
	d="
M157.720627,225.303345 
	C158.718018,226.359650 160.551819,227.393890 160.580368,228.475784 
	C160.807602,237.082153 160.744629,245.698456 160.596649,254.308731 
	C160.582611,255.124466 159.376099,255.919693 158.024017,256.792847 
	C156.879730,256.912018 156.434631,256.962799 155.989517,257.013580 
	C155.031601,255.779404 153.286743,254.571960 153.243759,253.306702 
	C152.969193,245.224487 152.970200,237.127243 153.159485,229.041489 
	C153.185776,227.918015 154.747879,226.830505 156.167816,225.630310 
	C157.064621,225.457291 157.392624,225.380325 157.720627,225.303345 
z"/>
<path fill="#E5BE7C" opacity="1.000000" stroke="none" 
	d="
M102.124794,256.848297 
	C102.557999,256.834473 102.991196,256.820648 103.788223,257.096375 
	C104.256706,257.682587 104.448982,257.902740 104.728882,258.046356 
	C104.720062,268.040863 104.711250,278.035339 104.339172,288.283630 
	C102.913719,285.554962 101.381012,283.223022 97.635071,283.950867 
	C97.493561,275.628357 97.352043,267.305847 97.426987,258.400085 
	C97.823769,257.588409 97.945122,257.332062 98.007523,257.047791 
	C98.424828,257.012939 98.842133,256.978088 99.942520,256.921448 
	C101.125336,256.882507 101.625069,256.865387 102.124794,256.848297 
z"/>
<path fill="#E5BE7C" opacity="1.000000" stroke="none" 
	d="
M132.670883,240.057281 
	C132.707748,248.833847 132.744629,257.610413 132.317902,266.764069 
	C128.651062,265.990387 126.990166,266.768951 127.042778,270.521118 
	C127.063019,271.964813 126.157349,273.421478 125.673553,274.872253 
	C125.542007,263.573792 125.410469,252.275345 125.513199,240.424515 
	C125.930153,239.669769 126.025673,239.432327 126.034042,239.159805 
	C126.419456,239.059875 126.804871,238.959961 127.887726,238.817413 
	C129.120987,238.770462 129.656784,238.766129 130.192596,238.761795 
	C130.192596,238.761795 130.603500,238.922729 130.976685,239.185211 
	C131.790207,239.650909 132.230545,239.854095 132.670883,240.057281 
z"/>
<path fill="#C3A36F" opacity="1.000000" stroke="none" 
	d="
M74.061607,275.913208 
	C75.041222,277.264618 76.765724,278.564117 76.864151,279.976868 
	C77.190903,284.667145 76.932610,289.398132 76.476471,294.488525 
	C72.497055,293.748749 71.046555,295.392212 71.013504,298.775818 
	C70.984322,301.763702 71.033066,304.752319 71.047394,307.740631 
	C70.463074,306.618958 69.397057,305.508057 69.371666,304.373871 
	C69.190414,296.276886 69.129860,288.173492 69.278931,280.076691 
	C69.302513,278.795624 70.576447,277.537628 71.984329,276.151062 
	C73.151443,275.993195 73.606522,275.953217 74.061607,275.913208 
z"/>
<path fill="#B89965" opacity="1.000000" stroke="none" 
	d="
M85.844398,298.212341 
	C85.002113,297.585449 83.467873,296.997467 83.430084,296.325348 
	C83.188530,292.029083 81.504570,286.195770 83.624794,283.722534 
	C88.010979,278.606018 86.282059,273.161316 87.607086,267.884827 
	C87.607086,270.443207 87.591652,273.001740 87.611420,275.559998 
	C87.631310,278.135223 88.534233,280.021484 90.036674,282.371918 
	C91.872910,285.244537 91.028564,290.008118 90.814201,293.925018 
	C90.730583,295.452789 89.207024,296.901764 87.580505,298.404449 
	C86.495918,298.352325 86.170158,298.282318 85.844398,298.212341 
z"/>
<path fill="#C9A365" opacity="1.000000" stroke="none" 
	d="
M62.977486,303.038971 
	C62.957623,307.358337 62.937759,311.677734 62.745853,316.627441 
	C62.366535,317.519867 62.246967,317.817230 62.215107,318.149872 
	C61.781876,318.224945 61.348644,318.300018 60.172920,318.410889 
	C58.866184,318.447632 58.301941,318.448578 57.737694,318.449524 
	C57.043961,317.856812 55.774551,317.288452 55.748299,316.667542 
	C55.552509,312.035919 55.549038,307.392639 55.658138,302.757080 
	C55.669228,302.285858 56.821728,301.841461 58.061470,301.307678 
	C59.074554,301.209961 59.470718,301.189178 59.866882,301.168396 
	C60.368511,301.430969 60.870140,301.693604 61.834778,302.158508 
	C62.501472,302.609802 62.728039,302.835876 62.977486,303.038971 
z"/>
<path fill="#C3A36F" opacity="1.000000" stroke="none" 
	d="
M125.534882,275.286316 
	C126.157349,273.421478 127.063019,271.964813 127.042778,270.521118 
	C126.990166,266.768951 128.651062,265.990387 132.245605,267.241089 
	C132.734894,271.422455 132.984818,275.509430 132.837204,279.581940 
	C132.793549,280.785889 131.628204,281.949158 130.187012,283.226532 
	C128.860596,283.336914 128.324020,283.351807 127.787460,283.366699 
	C123.107773,282.022308 126.172691,278.262268 125.534882,275.286316 
z"/>
<path fill="#D8B67E" opacity="1.000000" stroke="none" 
	d="
M143.946045,245.047852 
	C144.904251,246.287781 146.432358,247.418991 146.694321,248.791809 
	C147.148987,251.174500 146.820648,253.706619 146.820648,256.735901 
	C144.272385,256.863129 142.062027,256.973480 138.915466,257.130554 
	C140.302277,252.907257 136.407425,248.547974 141.991806,245.255920 
	C143.104752,245.141541 143.525406,245.094696 143.946045,245.047852 
z"/>
<path fill="#D8B67E" opacity="1.000000" stroke="none" 
	d="
M115.733368,278.277222 
	C113.958649,277.475281 111.346115,276.459991 111.419655,275.707031 
	C111.686424,272.975342 109.145142,269.357422 113.441032,267.534698 
	C114.349129,267.149384 114.934196,266.002777 114.775909,266.174438 
	C115.413528,266.588226 117.001892,267.619019 119.015343,268.925690 
	C117.370903,271.543396 122.362953,276.364502 115.733368,278.277222 
z"/>
<path fill="#D8B67E" opacity="1.000000" stroke="none" 
	d="
M97.497368,284.376068 
	C101.381012,283.223022 102.913719,285.554962 104.228546,288.736023 
	C104.564087,291.653320 104.646996,294.372009 104.477989,297.662537 
	C104.101517,298.336884 103.989555,298.464844 103.848763,298.534637 
	C103.715599,298.600647 103.422485,298.640320 103.420364,298.632385 
	C103.017944,297.131989 102.635231,295.626343 102.185562,293.860596 
	C100.507751,294.361603 98.997574,294.812561 97.487396,295.263489 
	C97.444824,291.776093 97.402245,288.288666 97.497368,284.376068 
z"/>
<path fill="#CDA666" opacity="1.000000" stroke="none" 
	d="
M71.251183,307.853882 
	C71.033066,304.752319 70.984322,301.763702 71.013504,298.775818 
	C71.046555,295.392212 72.497055,293.748749 76.380905,294.950470 
	C76.743645,298.382965 76.779755,301.728546 76.492630,305.619019 
	C75.768677,306.670746 75.367950,307.177643 74.967232,307.684509 
	C74.666054,307.869507 74.364876,308.054474 73.684929,308.259735 
	C72.830139,308.241028 72.354118,308.202087 71.878098,308.163116 
	C71.878098,308.163116 71.454971,307.967163 71.251183,307.853882 
z"/>
<path fill="#6D665D" opacity="1.000000" stroke="none" 
	d="
M102.090820,256.390137 
	C101.625069,256.865387 101.125336,256.882507 100.251648,256.864624 
	C99.877686,248.492111 99.877686,240.154587 99.877686,231.817078 
	C100.604073,231.806610 101.330467,231.796127 102.056854,231.785645 
	C102.056854,239.834442 102.056854,247.883224 102.090820,256.390137 
z"/>
<path fill="#6D665D" opacity="1.000000" stroke="none" 
	d="
M143.962601,244.576477 
	C143.525406,245.094696 143.104752,245.141541 142.372040,245.122803 
	C142.059982,237.618561 142.059982,230.179916 142.059982,222.741257 
	C142.699707,222.743057 143.339432,222.744858 143.979156,222.746658 
	C143.979156,229.866135 143.979156,236.985611 143.962601,244.576477 
z"/>
<path fill="#A78E63" opacity="1.000000" stroke="none" 
	d="
M97.351242,295.572906 
	C98.997574,294.812561 100.507751,294.361603 102.185562,293.860596 
	C102.635231,295.626343 103.017944,297.131989 103.420364,298.632385 
	C103.422485,298.640320 103.715599,298.600647 103.848763,298.534637 
	C103.989555,298.464844 104.101517,298.336884 104.421021,298.111816 
	C104.013458,298.978394 103.410957,299.967468 102.217827,301.067078 
	C101.175354,301.370758 100.723511,301.563934 100.271667,301.757080 
	C97.384415,300.770935 96.607117,298.687012 97.351242,295.572906 
z"/>
<path fill="#6D665D" opacity="1.000000" stroke="none" 
	d="
M130.151245,238.309250 
	C129.656784,238.766129 129.120987,238.770462 128.183228,238.755600 
	C127.781273,231.831848 127.781273,224.927292 127.781273,218.022736 
	C128.421417,218.002029 129.061554,217.981323 129.701691,217.960617 
	C129.837753,224.592651 129.973816,231.224670 130.151245,238.309250 
z"/>
<path fill="#5D574E" opacity="1.000000" stroke="none" 
	d="
M100.178970,302.234436 
	C100.723511,301.563934 101.175354,301.370758 101.873199,301.151489 
	C102.119202,308.076691 102.119202,315.027985 102.119202,321.979309 
	C101.441559,321.983490 100.763908,321.987701 100.086266,321.991882 
	C100.086266,315.565186 100.086266,309.138519 100.178970,302.234436 
z"/>
<path fill="#5D574E" opacity="1.000000" stroke="none" 
	d="
M74.060760,275.450409 
	C73.606522,275.953217 73.151443,275.993195 72.354309,276.016052 
	C72.012253,269.384155 72.012253,262.769318 72.012253,256.154510 
	C72.694801,256.155212 73.377357,256.155914 74.059906,256.156616 
	C74.059906,262.433624 74.059906,268.710602 74.060760,275.450409 
z"/>
<path fill="#5D574E" opacity="1.000000" stroke="none" 
	d="
M127.822235,283.809998 
	C128.324020,283.351807 128.860596,283.336914 129.799500,283.334412 
	C130.201828,289.166656 130.201828,294.986450 130.201828,300.806213 
	C129.420227,300.819244 128.638611,300.832245 127.857002,300.845245 
	C127.857002,295.314575 127.857002,289.783936 127.822235,283.809998 
z"/>
<path fill="#5D574E" opacity="1.000000" stroke="none" 
	d="
M155.985504,257.480988 
	C156.434631,256.962799 156.879730,256.912018 157.656799,256.918640 
	C157.988754,262.895477 157.988754,268.814880 157.988754,274.734314 
	C157.319672,274.749939 156.650574,274.765533 155.981491,274.781158 
	C155.981491,269.170227 155.981491,263.559326 155.985504,257.480988 
z"/>
<path fill="#5D574E" opacity="1.000000" stroke="none" 
	d="
M85.911118,298.662903 
	C86.170158,298.282318 86.495918,298.352325 87.269104,298.645294 
	C87.716522,304.449280 87.716522,310.030243 87.716522,315.611237 
	C87.301872,315.634125 86.887222,315.656982 86.472572,315.679871 
	C86.307663,310.157745 86.142754,304.635590 85.911118,298.662903 
z"/>
<path fill="#5D574E" opacity="1.000000" stroke="none" 
	d="
M157.784500,224.819504 
	C157.392624,225.380325 157.064621,225.457291 156.504272,225.418579 
	C156.271942,219.937256 156.271942,214.571609 156.271942,209.205948 
	C156.797424,209.184204 157.322891,209.162460 157.848373,209.140717 
	C157.848373,214.205704 157.848373,219.270676 157.784500,224.819504 
z"/>
<path fill="#B89965" opacity="1.000000" stroke="none" 
	d="
M194.088623,279.472412 
	C193.931686,286.692139 193.770172,293.459503 193.435104,300.595825 
	C193.176666,289.944183 193.091782,278.923584 193.126007,267.448547 
	C193.524765,271.002716 193.804398,275.011353 194.088623,279.472412 
z"/>
<path fill="#5D574E" opacity="1.000000" stroke="none" 
	d="
M71.914391,308.617859 
	C72.354118,308.202087 72.830139,308.241028 73.491440,308.440979 
	C73.676727,313.307159 73.676727,318.012390 73.676727,322.717621 
	C73.101379,322.735138 72.526031,322.752625 71.950684,322.770142 
	C71.950684,318.204315 71.950684,313.638458 71.914391,308.617859 
z"/>
<path fill="#5D574E" opacity="1.000000" stroke="none" 
	d="
M57.836155,318.877258 
	C58.301941,318.448578 58.866184,318.447632 59.852997,318.491333 
	C60.275558,322.987854 60.275558,327.439758 60.275558,331.891632 
	C59.725437,331.925232 59.175312,331.958801 58.625191,331.992371 
	C58.395000,327.763275 58.164806,323.534149 57.836155,318.877258 
z"/>
<path fill="#5D574E" opacity="1.000000" stroke="none" 
	d="
M59.937447,300.696808 
	C59.470718,301.189178 59.074554,301.209961 58.385742,301.175964 
	C58.093102,296.722290 58.093102,292.323395 58.093102,287.924469 
	C58.731403,287.913910 59.369705,287.903381 60.008007,287.892822 
	C60.008007,292.003632 60.008007,296.114410 59.937447,300.696808 
z"/>
<path fill="#B89965" opacity="1.000000" stroke="none" 
	d="
M193.820465,252.935547 
	C193.890289,256.387695 193.753372,259.834229 193.427490,263.634888 
	C193.151672,260.615631 193.064819,257.242279 193.090256,253.421936 
	C193.202530,252.974976 193.613708,252.929977 193.820465,252.935547 
z"/>
<path fill="#C3A36F" opacity="1.000000" stroke="none" 
	d="
M75.270981,307.744995 
	C75.367950,307.177643 75.768677,306.670746 76.399597,306.066650 
	C76.278099,306.581451 75.926414,307.193451 75.270981,307.744995 
z"/>
<path fill="#B89965" opacity="1.000000" stroke="none" 
	d="
M161.646790,338.869446 
	C161.424286,339.190369 160.862579,339.500549 159.978455,339.858521 
	C160.206573,339.557098 160.757080,339.207886 161.646790,338.869446 
z"/>
<path fill="#A78E63" opacity="1.000000" stroke="none" 
	d="
M60.979103,339.701538 
	C60.609959,339.699158 60.037712,339.449310 59.243839,338.969482 
	C59.606812,338.977692 60.191410,339.215881 60.979103,339.701538 
z"/>
<path fill="#C3A36F" opacity="1.000000" stroke="none" 
	d="
M132.655258,239.757629 
	C132.230545,239.854095 131.790207,239.650909 131.181168,239.268082 
	C131.554855,239.211624 132.097244,239.334808 132.655258,239.757629 
z"/>
<path fill="#A78E63" opacity="1.000000" stroke="none" 
	d="
M59.040363,338.576782 
	C58.652271,338.596802 58.074081,338.356812 57.284039,337.873901 
	C57.664879,337.859589 58.257572,338.088165 59.040363,338.576782 
z"/>
<path fill="#A78E63" opacity="1.000000" stroke="none" 
	d="
M57.077869,337.485382 
	C56.690563,337.596954 56.095238,337.460968 55.246826,337.149963 
	C55.619110,337.062561 56.244480,337.150208 57.077869,337.485382 
z"/>
<path fill="#A78E63" opacity="1.000000" stroke="none" 
	d="
M53.455143,336.880371 
	C53.122540,336.701660 53.130543,336.517029 53.164169,336.056091 
	C53.524075,335.964172 53.858368,336.148468 54.334488,336.587463 
	C54.249462,336.852905 54.022610,336.863647 53.455143,336.880371 
z"/>
<path fill="#A78E63" opacity="1.000000" stroke="none" 
	d="
M104.803940,257.781189 
	C104.448982,257.902740 104.256706,257.682587 104.106682,257.167236 
	C104.333870,257.137695 104.606438,257.326874 104.803940,257.781189 
z"/>
<path fill="#A6844F" opacity="1.000000" stroke="none" 
	d="
M166.586060,335.842896 
	C166.628326,336.024292 166.407471,336.300537 165.962616,336.725037 
	C165.933380,336.561432 166.128159,336.249573 166.586060,335.842896 
z"/>
<path fill="#A78E63" opacity="1.000000" stroke="none" 
	d="
M53.124046,335.660400 
	C52.950081,335.733856 52.659336,335.546051 52.178024,335.182343 
	C52.327393,335.137360 52.667328,335.268250 53.124046,335.660400 
z"/>
<path fill="#A78E63" opacity="1.000000" stroke="none" 
	d="
M97.723907,257.037720 
	C97.945122,257.332062 97.823769,257.588409 97.466354,257.936584 
	C97.339600,257.713470 97.389946,257.370544 97.723907,257.037720 
z"/>
<path fill="#5D574E" opacity="1.000000" stroke="none" 
	d="
M62.459900,318.036438 
	C62.246967,317.817230 62.366535,317.519867 62.746353,317.086456 
	C62.847496,317.251129 62.776093,317.587067 62.459900,318.036438 
z"/>
<path fill="#5D574E" opacity="1.000000" stroke="none" 
	d="
M62.962593,302.755371 
	C62.728039,302.835876 62.501472,302.609802 62.137150,302.181519 
	C62.300240,302.158752 62.623970,302.315247 62.962593,302.755371 
z"/>
<path fill="#A78E63" opacity="1.000000" stroke="none" 
	d="
M125.798187,239.185425 
	C126.025673,239.432327 125.930153,239.669769 125.575378,239.963257 
	C125.193565,239.723633 125.246582,239.442535 125.798187,239.185425 
z"/>
<path fill="#151B28" opacity="1.000000" stroke="none" 
	d="
M357.671509,218.043060 
	C358.569763,220.449875 359.001678,222.783188 359.516632,225.565002 
	C350.047668,225.565002 341.334015,225.565002 332.330627,225.565002 
	C332.330627,223.129654 332.330627,220.880219 332.330627,217.969574 
	C340.673157,217.969574 348.939178,217.969574 357.671509,218.043060 
z"/>
<path fill="#151B28" opacity="1.000000" stroke="none" 
	d="
M434.460022,206.639191 
	C432.259674,206.756592 430.476196,206.756592 428.255066,206.756592 
	C428.255066,204.171951 428.255066,201.841766 428.255066,199.177902 
	C430.492767,199.177902 432.710876,199.177902 435.881836,199.177902 
	C435.536285,201.702957 435.206573,204.112381 434.460022,206.639191 
z"/>
<path fill="#151B28" opacity="1.000000" stroke="none" 
	d="
M273.414185,344.867828 
	C267.342743,343.505768 264.697906,339.435242 264.065277,334.115753 
	C263.293945,327.629791 262.804291,320.911499 268.432739,316.015289 
	C273.843231,311.308685 282.848206,313.805756 284.419250,321.015228 
	C285.581604,326.349426 285.333771,332.298035 284.316040,337.709961 
	C283.380371,342.685608 279.248322,345.321106 273.414185,344.867828 
z"/>
<path fill="#151B28" opacity="1.000000" stroke="none" 
	d="
M445.382599,313.944336 
	C452.613434,313.956848 456.314819,316.497192 457.214844,323.118622 
	C457.851135,327.799683 457.717987,332.786041 456.814575,337.418915 
	C455.922455,341.993713 452.366669,344.829956 447.431305,344.938629 
	C442.584839,345.045380 439.236542,342.563873 437.342194,338.149994 
	C433.063049,328.179565 436.587463,317.064392 445.382599,313.944336 
z"/>
<path fill="#151B28" opacity="1.000000" stroke="none" 
	d="
M401.631531,326.415405 
	C407.273224,325.565338 410.930023,328.125702 412.589325,332.711578 
	C414.083893,336.842133 413.171112,340.935638 409.158112,343.742523 
	C405.504974,346.297699 401.805542,346.747955 398.062256,344.046356 
	C391.626709,339.401642 393.305817,330.280518 401.631531,326.415405 
z"/>
</svg>